<svg width="1920" height="3052" viewBox="0 0 1920 3052" fill="none" xmlns="http://www.w3.org/2000/svg">
<path opacity="0.08" d="M1369.13 0.125977H1367.13V1995.1L603.683 151.984L601.835 152.75L1365.28 1995.86L-45.3801 585.205L-46.7944 586.62L1363.86 1997.28L-479.25 1233.84L-480.016 1235.68L1363.1 1999.13H-631.874V2001.13H1363.1L-480.016 2764.57L-479.25 2766.42L1363.86 2002.97L-46.7944 3413.63L-45.3801 3415.05L1365.28 2004.39L601.835 3847.5L603.683 3848.27L1367.13 2005.15V4000.13H1369.13V2005.15L2132.57 3848.27L2134.42 3847.5L1370.97 2004.39L2781.63 3415.05L2783.05 3413.63L1372.39 2002.97L3215.5 2766.42L3216.27 2764.57L1373.15 2001.13H3368.13V1999.13H1373.15L3216.27 1235.68L3215.5 1233.84L1372.39 1997.28L2783.05 586.62L2781.63 585.205L1370.97 1995.86L2134.42 152.75L2132.57 151.984L1369.13 1995.1V0.125977Z" fill="#CCA352"/>
</svg>
