<svg width="5400" height="5400" viewBox="0 0 5400 5400" fill="none" xmlns="http://www.w3.org/2000/svg">
<path opacity="0.08" d="M2701.12 0H2698.88V2694.34L1667.79 205.095L1665.72 205.956L2696.8 2695.21L791.607 790.016L790.016 791.607L2695.21 2696.8L205.956 1665.72L205.095 1667.79L2694.34 2698.88H0V2701.12H2694.34L205.095 3732.21L205.956 3734.28L2695.21 2703.2L790.016 4608.39L791.607 4609.98L2696.8 2704.79L1665.72 5194.04L1667.79 5194.91L2698.88 2705.65V5400H2701.12V2705.66L3732.21 5194.91L3734.28 5194.04L2703.2 2704.8L4608.39 4609.98L4609.98 4608.39L2704.79 2703.2L5194.04 3734.28L5194.9 3732.21L2705.66 2701.12H5400V2698.88H2705.66L5194.91 1667.79L5194.04 1665.72L2704.79 2696.8L4609.98 791.607L4608.39 790.016L2703.2 2695.21L3734.28 205.956L3732.21 205.095L2701.12 2694.34V0Z" fill="#CCA352"/>
</svg>
