<svg width="44" height="56" viewBox="0 0 44 56" fill="none" xmlns="http://www.w3.org/2000/svg">
<path d="M15.2277 44.087C8.79283 50.092 1.31044 48.9055 3.07329 45.0767C5.00375 41.8472 11.2979 40.9725 15.1499 40.8424C14.9942 41.2328 14.7428 41.6989 14.5393 42.0531C11.2919 42.2226 8.8916 42.6705 6.30568 44.3443C-0.485329 48.7512 14.7847 48.9812 18.1308 35.5305C9.63684 42.7613 1.86414 36.72 6.13209 27.0618C4.98579 25.8118 4.50692 24.4467 4.62963 23.0968C1.84618 26.8015 0.253931 31.1267 0.0683673 35.4306C-1.38022 16.096 20.5102 4.48255 35.4152 16.1021C26.966 10.8719 15.0421 12.5699 7.15269 20.2366C5.67417 21.6742 5.34794 23.8414 6.78156 25.7936C9.57698 20.742 14.7279 18.59 18.5529 19.1621C25.1673 20.2002 24.9189 27.3342 17.8944 29.3137C15.0451 30.1309 11.4117 30.0219 8.71801 28.669C8.8497 28.3421 9.02029 27.9607 9.21484 27.5945C9.72364 27.876 10.2803 28.0909 10.8789 28.2392C19.6243 30.3972 25.1493 22.3976 19.5046 20.624C16.4308 19.6433 11.2381 21.4533 8.05357 28.3027C8.04758 28.2997 8.0416 28.2967 8.0386 28.2937C8.0386 28.2967 7.871 28.6962 7.871 28.6962C5.89565 33.6661 7.41607 38.4634 12.8303 37.0953C14.7578 36.5808 16.9367 35.2975 17.4335 34.1201C18.7384 31.048 20.3576 31.3839 20.7138 32.525C21.3573 34.2078 18.7235 39.1505 17.7388 40.8242L18.6905 40.8091C18.502 41.3842 17.8076 41.9804 17.0773 41.9804C16.5326 42.8461 15.2666 44.0779 15.2277 44.087ZM43.969 32.5674C43.7685 36.6867 42.299 40.6335 40.0183 43.9478C38.5069 46.2753 36.2262 45.676 34.0085 44.6288C33.4069 44.3443 28.0585 41.2934 27.7861 41.7383C28.3907 40.7455 30.2972 36.1934 31.2609 34.1049C42.0984 10.6207 43.2447 28.2513 32.8322 32.0407C32.6317 32.528 32.4851 32.982 32.3833 33.3573C37.7646 31.9287 41.2065 26.8741 41.5357 23.5115C41.7901 20.9236 39.5544 19.3891 36.8608 21.075C33.769 23.009 32.2755 28.0031 30.4858 32.5553C27.0558 32.9064 25.6671 31.2871 25.6521 29.4499C26.3016 27.9274 23.7546 29.0049 24.3352 30.6182C25.1164 32.295 27.1037 33.6207 29.9171 33.6721C28.3099 36.9621 26.999 40.7334 25.269 43.0216C23.0453 46.0453 20.0643 47.2772 18.2805 46.2299C16.2962 45.0677 19.9446 42.4284 24.4789 42.9096C24.868 42.4284 25.3169 41.823 25.5863 41.2873C21.5189 40.8515 16.7002 42.3467 16.7002 45.104C16.7002 48.0308 21.9139 50.0345 26.7685 43.2819C27.3881 42.4254 34.8465 46.7687 37.6539 46.8595C30.9616 53.942 20.2319 56.9505 11.2051 53.1096C26.1909 61.6631 44.8639 50.1707 43.969 32.5674ZM34.6849 10.0305C34.6849 10.2242 34.7567 10.3998 34.8734 10.536C34.1282 11.1595 32.9968 12.0947 32.0451 11.9101C30.6055 11.1988 30.6384 7.82101 30.7192 6.20172C32.0421 6.27739 32.075 4.26766 30.7761 4.26766C29.7734 4.26766 29.4412 5.63875 30.3451 6.10184C25.721 15.5421 22.9405 7.64546 22.4347 2.29424C23.7606 1.97947 23.5242 0 22.1683 0C20.8484 0 20.5731 1.90077 21.8481 2.27608C21.3513 7.53347 18.6037 15.639 13.9317 6.09579C14.8326 5.6327 14.5034 4.2616 13.5007 4.2616C12.2018 4.2616 12.2437 6.27739 13.5576 6.19567C13.6384 7.81798 13.6713 11.1928 12.2317 11.904C11.286 12.0856 10.1696 11.1716 9.40339 10.5299C9.83438 10.0245 9.47522 9.24962 8.82575 9.24962C7.51484 9.24962 8.07751 11.4198 9.23579 10.6812C12.1449 14.8157 15.0182 12.0342 14.0814 7.15513C17.2749 15.6814 22.6771 9.86101 21.9977 2.30635C22.1863 2.33359 22.1653 2.32451 22.2791 2.3124C21.6146 9.61282 26.9421 15.8509 30.1984 7.15513C29.2856 11.904 32.084 14.8823 35.044 10.6812C35.5588 11.0112 36.2203 10.6328 36.2203 10.0275C36.2203 9.00445 34.6849 9.00143 34.6849 10.0305Z" fill="#CCA352"/>
</svg>
